<svg width="231" height="240" viewBox="0 0 231 240" fill="none" xmlns="http://www.w3.org/2000/svg">
<path d="M43.4329 0.0999756C31.9402 0.0999756 20.9182 4.66544 12.7916 12.792C4.66507 20.9186 0.0996094 31.9406 0.0996094 43.4333V150.1C0.0996094 161.593 4.66507 172.615 12.7916 180.741C20.9182 188.868 31.9402 193.433 43.4329 193.433H73.4329V223.433C73.4329 229.124 74.5538 234.759 76.7315 240.016C78.9092 245.274 82.1011 250.051 86.125 254.075C90.1489 258.098 94.9259 261.29 100.183 263.468C105.441 265.646 111.076 266.767 116.766 266.767H223.433C229.124 266.767 234.758 265.646 240.016 263.468C245.273 261.29 250.05 258.098 254.074 254.075C258.098 250.051 261.29 245.274 263.468 240.016C265.645 234.759 266.766 229.124 266.766 223.433V116.767C266.766 111.076 265.645 105.441 263.468 100.184C261.29 94.9263 258.098 90.1492 254.074 86.1254C250.05 82.1015 245.273 78.9096 240.016 76.7319C234.758 74.5542 229.124 73.4333 223.433 73.4333H193.433V43.4333C193.433 31.9406 188.867 20.9186 180.741 12.792C172.614 4.66544 161.592 0.0999756 150.1 0.0999756H43.4329Z" fill="#7948FD" fill-opacity="0.38" stroke="#F5F5F5" stroke-opacity="0.23" stroke-width="0.2"/>
</svg>
